<svg width="747" height="417" viewBox="0 0 747 417" fill="none" xmlns="http://www.w3.org/2000/svg">
<path fill-rule="evenodd" clip-rule="evenodd" d="M11 0C4.92485 0 0 4.92487 0 11V406C0 412.075 4.92487 417 11 417H283.643C294.077 417 303.645 411.198 308.47 401.947L369.559 284.801C371.054 281.934 375.157 281.934 376.652 284.801L437.741 401.947C442.565 411.198 452.134 417 462.568 417H735.211C741.286 417 746.21 412.075 746.21 406V11C746.21 4.92486 741.286 0 735.21 0H11ZM577.947 299.947C618.351 299.947 651.105 267.193 651.105 226.789C651.105 186.385 618.351 153.632 577.947 153.632C537.543 153.632 504.789 186.385 504.789 226.789C504.789 267.193 537.543 299.947 577.947 299.947ZM234.105 226.789C234.105 267.193 201.351 299.947 160.947 299.947C120.543 299.947 87.7894 267.193 87.7894 226.789C87.7894 186.385 120.543 153.632 160.947 153.632C201.351 153.632 234.105 186.385 234.105 226.789Z" fill="white"/>
</svg>
