<svg width="388" height="388" viewBox="0 0 388 388" fill="none" xmlns="http://www.w3.org/2000/svg">
<path d="M145.5 87.3V145.5H87.3V87.3H145.5ZM174.6 58.2H58.2V174.6H174.6V58.2ZM145.5 242.5V300.7H87.3V242.5H145.5ZM174.6 213.4H58.2V329.8H174.6V213.4ZM300.7 87.3V145.5H242.5V87.3H300.7ZM329.8 58.2H213.4V174.6H329.8V58.2ZM213.4 213.4H242.5V242.5H213.4V213.4ZM242.5 242.5H271.6V271.6H242.5V242.5ZM271.6 213.4H300.7V242.5H271.6V213.4ZM213.4 271.6H242.5V300.7H213.4V271.6ZM242.5 300.7H271.6V329.8H242.5V300.7ZM271.6 271.6H300.7V300.7H271.6V271.6ZM300.7 242.5H329.8V271.6H300.7V242.5ZM300.7 300.7H329.8V329.8H300.7V300.7ZM388 97H349.2V38.8H291V0H388V97ZM388 388V291H349.2V349.2H291V388H388ZM0 388H97V349.2H38.8V291H0V388ZM0 0V97H38.8V38.8H97V0H0Z" fill="white"/>
</svg>
